<mxfile host="65bd71144e">
    <diagram id="KQRz3mKIO2oei6lWuYVj" name="Page-1">
        <mxGraphModel dx="1722" dy="1162" grid="1" gridSize="10" guides="1" tooltips="1" connect="1" arrows="1" fold="1" page="1" pageScale="1" pageWidth="850" pageHeight="1100" math="0" shadow="0">
            <root>
                <mxCell id="0"/>
                <mxCell id="1" parent="0"/>
                <mxCell id="5" value="&lt;b&gt;ウェブ・UI・DB・デバイス&lt;/b&gt;&lt;br&gt;フレームワークとドライバ" style="rounded=0;whiteSpace=wrap;html=1;verticalAlign=bottom;fillColor=#B3B3B3;" vertex="1" parent="1">
                    <mxGeometry x="40" y="40" width="300" height="210" as="geometry"/>
                </mxCell>
                <mxCell id="4" value="&lt;b&gt;コントローラー・プレゼンター・ゲートウェイ&lt;/b&gt;&lt;br&gt;インターフェイスアダプター" style="rounded=0;whiteSpace=wrap;html=1;verticalAlign=bottom;fillColor=#CCCCCC;" vertex="1" parent="1">
                    <mxGeometry x="55" y="50" width="270" height="150" as="geometry"/>
                </mxCell>
                <mxCell id="3" value="&lt;b&gt;ユースケース&lt;/b&gt;&lt;br&gt;アプリケーションのビジネスルール" style="rounded=0;whiteSpace=wrap;html=1;verticalAlign=bottom;fillColor=#E6E6E6;" vertex="1" parent="1">
                    <mxGeometry x="85" y="60" width="210" height="90" as="geometry"/>
                </mxCell>
                <mxCell id="2" value="&lt;b&gt;エンティティ&lt;/b&gt;&lt;br&gt;企業のビジネスルール" style="rounded=0;whiteSpace=wrap;html=1;" vertex="1" parent="1">
                    <mxGeometry x="110" y="70" width="160" height="40" as="geometry"/>
                </mxCell>
            </root>
        </mxGraphModel>
    </diagram>
</mxfile>